<mxfile host="app.diagrams.net" modified="2022-04-06T13:53:17.226Z" agent="5.0 (Windows NT 10.0; Win64; x64) AppleWebKit/537.36 (KHTML, like Gecko) Chrome/100.0.4896.60 Safari/537.36 Edg/100.0.1185.27" etag="UvqGI2cdj7ACOTtx9uDe" version="17.4.0" type="github">
  <diagram id="RsMX6sU1Mnifi18Tqdir" name="第 1 页">
    <mxGraphModel dx="1038" dy="547" grid="1" gridSize="10" guides="1" tooltips="1" connect="1" arrows="1" fold="1" page="1" pageScale="1" pageWidth="827" pageHeight="1169" math="0" shadow="0">
      <root>
        <mxCell id="0" />
        <mxCell id="1" parent="0" />
        <mxCell id="SO-exuDcZDa1BRKhL2p9-27" value="Win_main" style="swimlane;fontStyle=1;childLayout=stackLayout;horizontal=1;startSize=26;fillColor=#e1d5e7;horizontalStack=0;resizeParent=1;resizeParentMax=0;resizeLast=0;collapsible=1;marginBottom=0;strokeColor=#9673a6;" vertex="1" parent="1">
          <mxGeometry x="300" y="170" width="160" height="206" as="geometry" />
        </mxCell>
        <mxCell id="SO-exuDcZDa1BRKhL2p9-28" value="功能：模拟结果显示" style="text;strokeColor=#d6b656;fillColor=#fff2cc;align=left;verticalAlign=middle;spacingLeft=4;spacingRight=4;overflow=hidden;rotatable=0;points=[[0,0.5],[1,0.5]];portConstraint=eastwest;" vertex="1" parent="SO-exuDcZDa1BRKhL2p9-27">
          <mxGeometry y="26" width="160" height="45" as="geometry" />
        </mxCell>
        <mxCell id="SO-exuDcZDa1BRKhL2p9-31" value="功能：实现逸度模型算法&#xa;技术：Python&#xa;           Numpy" style="text;strokeColor=#82b366;fillColor=#d5e8d4;align=left;verticalAlign=middle;spacingLeft=4;spacingRight=4;overflow=hidden;rotatable=0;points=[[0,0.5],[1,0.5]];portConstraint=eastwest;" vertex="1" parent="SO-exuDcZDa1BRKhL2p9-27">
          <mxGeometry y="71" width="160" height="45" as="geometry" />
        </mxCell>
        <mxCell id="SO-exuDcZDa1BRKhL2p9-29" value="功能：提供MID子窗口结果" style="text;strokeColor=#6c8ebf;fillColor=#dae8fc;align=left;verticalAlign=middle;spacingLeft=4;spacingRight=4;overflow=hidden;rotatable=0;points=[[0,0.5],[1,0.5]];portConstraint=eastwest;" vertex="1" parent="SO-exuDcZDa1BRKhL2p9-27">
          <mxGeometry y="116" width="160" height="45" as="geometry" />
        </mxCell>
        <mxCell id="SO-exuDcZDa1BRKhL2p9-30" value="功能：接收输入参数" style="text;strokeColor=#b85450;fillColor=#f8cecc;align=left;verticalAlign=middle;spacingLeft=4;spacingRight=4;overflow=hidden;rotatable=0;points=[[0,0.5],[1,0.5]];portConstraint=eastwest;fontStyle=0" vertex="1" parent="SO-exuDcZDa1BRKhL2p9-27">
          <mxGeometry y="161" width="160" height="45" as="geometry" />
        </mxCell>
        <mxCell id="SO-exuDcZDa1BRKhL2p9-115" style="edgeStyle=orthogonalEdgeStyle;rounded=1;orthogonalLoop=1;jettySize=auto;html=1;exitX=0.25;exitY=0;exitDx=0;exitDy=0;entryX=0.75;entryY=0;entryDx=0;entryDy=0;fontSize=10;strokeColor=#000000;dashed=1;" edge="1" parent="1" source="SO-exuDcZDa1BRKhL2p9-39" target="SO-exuDcZDa1BRKhL2p9-56">
          <mxGeometry relative="1" as="geometry">
            <Array as="points">
              <mxPoint x="80" y="120" />
              <mxPoint x="703" y="120" />
            </Array>
          </mxGeometry>
        </mxCell>
        <mxCell id="SO-exuDcZDa1BRKhL2p9-121" value="对模拟结果进一步分析" style="edgeLabel;html=1;align=center;verticalAlign=middle;resizable=0;points=[];fontSize=16;fontStyle=1" vertex="1" connectable="0" parent="SO-exuDcZDa1BRKhL2p9-115">
          <mxGeometry x="-0.0776" y="3" relative="1" as="geometry">
            <mxPoint x="21" as="offset" />
          </mxGeometry>
        </mxCell>
        <mxCell id="SO-exuDcZDa1BRKhL2p9-39" value="subWin_conc&amp;fug" style="swimlane;fontStyle=1;align=center;verticalAlign=middle;childLayout=stackLayout;horizontal=1;startSize=26;horizontalStack=0;resizeParent=1;resizeParentMax=0;resizeLast=0;collapsible=1;marginBottom=0;fontSize=12;fillColor=#ffe6cc;strokeColor=#4D4D4D;" vertex="1" parent="1">
          <mxGeometry x="40" y="210" width="160" height="86" as="geometry" />
        </mxCell>
        <mxCell id="SO-exuDcZDa1BRKhL2p9-40" value="功能：显示计算结果" style="text;strokeColor=#4D4D4D;fillColor=none;align=left;verticalAlign=middle;spacingLeft=4;spacingRight=4;overflow=hidden;rotatable=0;points=[[0,0.5],[1,0.5]];portConstraint=eastwest;fontSize=12;rounded=0;strokeWidth=1;" vertex="1" parent="SO-exuDcZDa1BRKhL2p9-39">
          <mxGeometry y="26" width="160" height="30" as="geometry" />
        </mxCell>
        <mxCell id="SO-exuDcZDa1BRKhL2p9-42" value="功能：可视化结果&#xa;技术：Matplotlib" style="text;align=left;verticalAlign=middle;spacingLeft=4;spacingRight=4;overflow=hidden;rotatable=0;points=[[0,0.5],[1,0.5]];portConstraint=eastwest;fontSize=12;strokeColor=#4D4D4D;" vertex="1" parent="SO-exuDcZDa1BRKhL2p9-39">
          <mxGeometry y="56" width="160" height="30" as="geometry" />
        </mxCell>
        <mxCell id="SO-exuDcZDa1BRKhL2p9-98" style="edgeStyle=orthogonalEdgeStyle;orthogonalLoop=1;jettySize=auto;html=1;exitX=0.5;exitY=0;exitDx=0;exitDy=0;entryX=0.5;entryY=1;entryDx=0;entryDy=0;fontSize=10;fillColor=#f8cecc;strokeColor=#b85450;rounded=1;" edge="1" parent="1" source="SO-exuDcZDa1BRKhL2p9-65" target="SO-exuDcZDa1BRKhL2p9-27">
          <mxGeometry relative="1" as="geometry" />
        </mxCell>
        <mxCell id="SO-exuDcZDa1BRKhL2p9-65" value="subWin_Chemical" style="swimlane;fontStyle=1;align=center;verticalAlign=middle;childLayout=stackLayout;horizontal=1;startSize=26;horizontalStack=0;resizeParent=1;resizeParentMax=0;resizeLast=0;collapsible=1;marginBottom=0;fontSize=12;fillColor=#f8cecc;strokeColor=#b85450;" vertex="1" parent="1">
          <mxGeometry x="100" y="460" width="160" height="231" as="geometry" />
        </mxCell>
        <mxCell id="SO-exuDcZDa1BRKhL2p9-66" value="有机物名称：str" style="text;strokeColor=none;fillColor=none;align=left;verticalAlign=middle;spacingLeft=4;spacingRight=4;overflow=hidden;rotatable=0;points=[[0,0.5],[1,0.5]];portConstraint=eastwest;fontSize=12;rounded=0;strokeWidth=1;" vertex="1" parent="SO-exuDcZDa1BRKhL2p9-65">
          <mxGeometry y="26" width="160" height="25" as="geometry" />
        </mxCell>
        <mxCell id="SO-exuDcZDa1BRKhL2p9-67" value="摩尔质量：float" style="text;align=left;verticalAlign=middle;spacingLeft=4;spacingRight=4;overflow=hidden;rotatable=0;points=[[0,0.5],[1,0.5]];portConstraint=eastwest;fontSize=12;strokeColor=none;" vertex="1" parent="SO-exuDcZDa1BRKhL2p9-65">
          <mxGeometry y="51" width="160" height="25" as="geometry" />
        </mxCell>
        <mxCell id="SO-exuDcZDa1BRKhL2p9-68" value="logkow：float" style="text;align=left;verticalAlign=middle;spacingLeft=4;spacingRight=4;overflow=hidden;rotatable=0;points=[[0,0.5],[1,0.5]];portConstraint=eastwest;fontSize=12;strokeColor=none;" vertex="1" parent="SO-exuDcZDa1BRKhL2p9-65">
          <mxGeometry y="76" width="160" height="25" as="geometry" />
        </mxCell>
        <mxCell id="SO-exuDcZDa1BRKhL2p9-69" value="水溶解度：float" style="text;align=left;verticalAlign=middle;spacingLeft=4;spacingRight=4;overflow=hidden;rotatable=0;points=[[0,0.5],[1,0.5]];portConstraint=eastwest;fontSize=12;strokeColor=none;" vertex="1" parent="SO-exuDcZDa1BRKhL2p9-65">
          <mxGeometry y="101" width="160" height="25" as="geometry" />
        </mxCell>
        <mxCell id="SO-exuDcZDa1BRKhL2p9-70" value="蒸气压：float" style="text;align=left;verticalAlign=middle;spacingLeft=4;spacingRight=4;overflow=hidden;rotatable=0;points=[[0,0.5],[1,0.5]];portConstraint=eastwest;fontSize=12;strokeColor=none;" vertex="1" parent="SO-exuDcZDa1BRKhL2p9-65">
          <mxGeometry y="126" width="160" height="25" as="geometry" />
        </mxCell>
        <mxCell id="SO-exuDcZDa1BRKhL2p9-71" value="半衰期：float" style="text;align=left;verticalAlign=middle;spacingLeft=4;spacingRight=4;overflow=hidden;rotatable=0;points=[[0,0.5],[1,0.5]];portConstraint=eastwest;fontSize=12;strokeColor=none;" vertex="1" parent="SO-exuDcZDa1BRKhL2p9-65">
          <mxGeometry y="151" width="160" height="25" as="geometry" />
        </mxCell>
        <mxCell id="SO-exuDcZDa1BRKhL2p9-72" value="……" style="text;align=left;verticalAlign=middle;spacingLeft=4;spacingRight=4;overflow=hidden;rotatable=0;points=[[0,0.5],[1,0.5]];portConstraint=eastwest;fontSize=12;strokeColor=none;fontStyle=1" vertex="1" parent="SO-exuDcZDa1BRKhL2p9-65">
          <mxGeometry y="176" width="160" height="25" as="geometry" />
        </mxCell>
        <mxCell id="SO-exuDcZDa1BRKhL2p9-73" value="功能：有机物理化参数录入" style="text;align=left;verticalAlign=middle;spacingLeft=4;spacingRight=4;overflow=hidden;rotatable=0;points=[[0,0.5],[1,0.5]];portConstraint=eastwest;fontSize=12;strokeColor=default;fontStyle=0" vertex="1" parent="SO-exuDcZDa1BRKhL2p9-65">
          <mxGeometry y="201" width="160" height="30" as="geometry" />
        </mxCell>
        <mxCell id="SO-exuDcZDa1BRKhL2p9-99" style="edgeStyle=orthogonalEdgeStyle;rounded=1;orthogonalLoop=1;jettySize=auto;html=1;exitX=0.5;exitY=0;exitDx=0;exitDy=0;entryX=0.5;entryY=1;entryDx=0;entryDy=0;fontSize=10;fillColor=#f8cecc;strokeColor=#b85450;" edge="1" parent="1" source="SO-exuDcZDa1BRKhL2p9-78" target="SO-exuDcZDa1BRKhL2p9-27">
          <mxGeometry relative="1" as="geometry" />
        </mxCell>
        <mxCell id="SO-exuDcZDa1BRKhL2p9-78" value="subWin_Region" style="swimlane;fontStyle=1;align=center;verticalAlign=middle;childLayout=stackLayout;horizontal=1;startSize=26;horizontalStack=0;resizeParent=1;resizeParentMax=0;resizeLast=0;collapsible=1;marginBottom=0;fontSize=12;fillColor=#f8cecc;strokeColor=#b85450;" vertex="1" parent="1">
          <mxGeometry x="300" y="460" width="160" height="231" as="geometry" />
        </mxCell>
        <mxCell id="SO-exuDcZDa1BRKhL2p9-79" value="区域名称：str" style="text;strokeColor=none;fillColor=none;align=left;verticalAlign=middle;spacingLeft=4;spacingRight=4;overflow=hidden;rotatable=0;points=[[0,0.5],[1,0.5]];portConstraint=eastwest;fontSize=12;rounded=0;strokeWidth=1;" vertex="1" parent="SO-exuDcZDa1BRKhL2p9-78">
          <mxGeometry y="26" width="160" height="25" as="geometry" />
        </mxCell>
        <mxCell id="SO-exuDcZDa1BRKhL2p9-80" value="地理性质：float" style="text;align=left;verticalAlign=middle;spacingLeft=4;spacingRight=4;overflow=hidden;rotatable=0;points=[[0,0.5],[1,0.5]];portConstraint=eastwest;fontSize=12;strokeColor=none;" vertex="1" parent="SO-exuDcZDa1BRKhL2p9-78">
          <mxGeometry y="51" width="160" height="25" as="geometry" />
        </mxCell>
        <mxCell id="SO-exuDcZDa1BRKhL2p9-81" value="介质密度：float" style="text;align=left;verticalAlign=middle;spacingLeft=4;spacingRight=4;overflow=hidden;rotatable=0;points=[[0,0.5],[1,0.5]];portConstraint=eastwest;fontSize=12;strokeColor=none;" vertex="1" parent="SO-exuDcZDa1BRKhL2p9-78">
          <mxGeometry y="76" width="160" height="25" as="geometry" />
        </mxCell>
        <mxCell id="SO-exuDcZDa1BRKhL2p9-82" value="介质体积分数：float" style="text;align=left;verticalAlign=middle;spacingLeft=4;spacingRight=4;overflow=hidden;rotatable=0;points=[[0,0.5],[1,0.5]];portConstraint=eastwest;fontSize=12;strokeColor=none;" vertex="1" parent="SO-exuDcZDa1BRKhL2p9-78">
          <mxGeometry y="101" width="160" height="25" as="geometry" />
        </mxCell>
        <mxCell id="SO-exuDcZDa1BRKhL2p9-83" value="停留时间：float" style="text;align=left;verticalAlign=middle;spacingLeft=4;spacingRight=4;overflow=hidden;rotatable=0;points=[[0,0.5],[1,0.5]];portConstraint=eastwest;fontSize=12;strokeColor=none;" vertex="1" parent="SO-exuDcZDa1BRKhL2p9-78">
          <mxGeometry y="126" width="160" height="25" as="geometry" />
        </mxCell>
        <mxCell id="SO-exuDcZDa1BRKhL2p9-84" value="环境温度：float" style="text;align=left;verticalAlign=middle;spacingLeft=4;spacingRight=4;overflow=hidden;rotatable=0;points=[[0,0.5],[1,0.5]];portConstraint=eastwest;fontSize=12;strokeColor=none;" vertex="1" parent="SO-exuDcZDa1BRKhL2p9-78">
          <mxGeometry y="151" width="160" height="25" as="geometry" />
        </mxCell>
        <mxCell id="SO-exuDcZDa1BRKhL2p9-85" value="……" style="text;align=left;verticalAlign=middle;spacingLeft=4;spacingRight=4;overflow=hidden;rotatable=0;points=[[0,0.5],[1,0.5]];portConstraint=eastwest;fontSize=12;strokeColor=none;fontStyle=1" vertex="1" parent="SO-exuDcZDa1BRKhL2p9-78">
          <mxGeometry y="176" width="160" height="25" as="geometry" />
        </mxCell>
        <mxCell id="SO-exuDcZDa1BRKhL2p9-86" value="功能：区域参数录入" style="text;align=left;verticalAlign=middle;spacingLeft=4;spacingRight=4;overflow=hidden;rotatable=0;points=[[0,0.5],[1,0.5]];portConstraint=eastwest;fontSize=12;strokeColor=default;fontStyle=0" vertex="1" parent="SO-exuDcZDa1BRKhL2p9-78">
          <mxGeometry y="201" width="160" height="30" as="geometry" />
        </mxCell>
        <mxCell id="SO-exuDcZDa1BRKhL2p9-100" style="edgeStyle=orthogonalEdgeStyle;rounded=1;orthogonalLoop=1;jettySize=auto;html=1;exitX=0.5;exitY=0;exitDx=0;exitDy=0;entryX=0.5;entryY=1;entryDx=0;entryDy=0;fontSize=10;fillColor=#f8cecc;strokeColor=#b85450;" edge="1" parent="1" source="SO-exuDcZDa1BRKhL2p9-87" target="SO-exuDcZDa1BRKhL2p9-27">
          <mxGeometry relative="1" as="geometry" />
        </mxCell>
        <mxCell id="SO-exuDcZDa1BRKhL2p9-87" value="subWin_Tran&amp;Input" style="swimlane;fontStyle=1;align=center;verticalAlign=middle;childLayout=stackLayout;horizontal=1;startSize=26;horizontalStack=0;resizeParent=1;resizeParentMax=0;resizeLast=0;collapsible=1;marginBottom=0;fontSize=12;fillColor=#f8cecc;strokeColor=#b85450;" vertex="1" parent="1">
          <mxGeometry x="500" y="460" width="160" height="131" as="geometry" />
        </mxCell>
        <mxCell id="SO-exuDcZDa1BRKhL2p9-89" value="传质系数：float" style="text;align=left;verticalAlign=middle;spacingLeft=4;spacingRight=4;overflow=hidden;rotatable=0;points=[[0,0.5],[1,0.5]];portConstraint=eastwest;fontSize=12;strokeColor=none;" vertex="1" parent="SO-exuDcZDa1BRKhL2p9-87">
          <mxGeometry y="26" width="160" height="25" as="geometry" />
        </mxCell>
        <mxCell id="SO-exuDcZDa1BRKhL2p9-90" value="平流浓度：float" style="text;align=left;verticalAlign=middle;spacingLeft=4;spacingRight=4;overflow=hidden;rotatable=0;points=[[0,0.5],[1,0.5]];portConstraint=eastwest;fontSize=12;strokeColor=none;" vertex="1" parent="SO-exuDcZDa1BRKhL2p9-87">
          <mxGeometry y="51" width="160" height="25" as="geometry" />
        </mxCell>
        <mxCell id="SO-exuDcZDa1BRKhL2p9-91" value="排放量：float" style="text;align=left;verticalAlign=middle;spacingLeft=4;spacingRight=4;overflow=hidden;rotatable=0;points=[[0,0.5],[1,0.5]];portConstraint=eastwest;fontSize=12;strokeColor=none;" vertex="1" parent="SO-exuDcZDa1BRKhL2p9-87">
          <mxGeometry y="76" width="160" height="25" as="geometry" />
        </mxCell>
        <mxCell id="SO-exuDcZDa1BRKhL2p9-95" value="功能：传质和输入参数录入" style="text;align=left;verticalAlign=middle;spacingLeft=4;spacingRight=4;overflow=hidden;rotatable=0;points=[[0,0.5],[1,0.5]];portConstraint=eastwest;fontSize=12;strokeColor=default;fontStyle=0" vertex="1" parent="SO-exuDcZDa1BRKhL2p9-87">
          <mxGeometry y="101" width="160" height="30" as="geometry" />
        </mxCell>
        <mxCell id="SO-exuDcZDa1BRKhL2p9-101" style="edgeStyle=orthogonalEdgeStyle;rounded=1;orthogonalLoop=1;jettySize=auto;html=1;exitX=0;exitY=0.5;exitDx=0;exitDy=0;entryX=0.5;entryY=0;entryDx=0;entryDy=0;fontSize=10;strokeColor=#6c8ebf;fillColor=#dae8fc;" edge="1" parent="1" source="SO-exuDcZDa1BRKhL2p9-29" target="SO-exuDcZDa1BRKhL2p9-39">
          <mxGeometry relative="1" as="geometry" />
        </mxCell>
        <mxCell id="SO-exuDcZDa1BRKhL2p9-105" value="" style="group" vertex="1" connectable="0" parent="1">
          <mxGeometry x="583" y="210" width="160" height="212" as="geometry" />
        </mxCell>
        <mxCell id="SO-exuDcZDa1BRKhL2p9-56" value="subWin_sentisty" style="swimlane;fontStyle=1;align=center;verticalAlign=middle;childLayout=stackLayout;horizontal=1;startSize=26;horizontalStack=0;resizeParent=1;resizeParentMax=0;resizeLast=0;collapsible=1;marginBottom=0;fontSize=12;fillColor=#ffe6cc;strokeColor=#4D4D4D;" vertex="1" parent="SO-exuDcZDa1BRKhL2p9-105">
          <mxGeometry width="160" height="86" as="geometry" />
        </mxCell>
        <mxCell id="SO-exuDcZDa1BRKhL2p9-57" value="功能：显示灵敏度分析" style="text;strokeColor=#4D4D4D;fillColor=none;align=left;verticalAlign=middle;spacingLeft=4;spacingRight=4;overflow=hidden;rotatable=0;points=[[0,0.5],[1,0.5]];portConstraint=eastwest;fontSize=12;rounded=0;strokeWidth=1;" vertex="1" parent="SO-exuDcZDa1BRKhL2p9-56">
          <mxGeometry y="26" width="160" height="30" as="geometry" />
        </mxCell>
        <mxCell id="SO-exuDcZDa1BRKhL2p9-58" value="功能：可视化结果&#xa;技术：Matplotlib" style="text;align=left;verticalAlign=middle;spacingLeft=4;spacingRight=4;overflow=hidden;rotatable=0;points=[[0,0.5],[1,0.5]];portConstraint=eastwest;fontSize=12;strokeColor=#4D4D4D;" vertex="1" parent="SO-exuDcZDa1BRKhL2p9-56">
          <mxGeometry y="56" width="160" height="30" as="geometry" />
        </mxCell>
        <mxCell id="SO-exuDcZDa1BRKhL2p9-59" value="subWin_uncertainty" style="swimlane;fontStyle=1;align=center;verticalAlign=middle;childLayout=stackLayout;horizontal=1;startSize=26;horizontalStack=0;resizeParent=1;resizeParentMax=0;resizeLast=0;collapsible=1;marginBottom=0;fontSize=12;fillColor=#ffe6cc;strokeColor=#4D4D4D;" vertex="1" parent="SO-exuDcZDa1BRKhL2p9-105">
          <mxGeometry y="86" width="160" height="126" as="geometry" />
        </mxCell>
        <mxCell id="SO-exuDcZDa1BRKhL2p9-60" value="功能：显示蒙特卡洛&#xa;           模拟结果" style="text;strokeColor=#4D4D4D;fillColor=none;align=left;verticalAlign=middle;spacingLeft=4;spacingRight=4;overflow=hidden;rotatable=0;points=[[0,0.5],[1,0.5]];portConstraint=eastwest;fontSize=12;rounded=0;strokeWidth=1;" vertex="1" parent="SO-exuDcZDa1BRKhL2p9-59">
          <mxGeometry y="26" width="160" height="50" as="geometry" />
        </mxCell>
        <mxCell id="SO-exuDcZDa1BRKhL2p9-61" value="功能：可视化结果&#xa;技术：Matplotlib&#xa;           蒙特卡洛方法" style="text;align=left;verticalAlign=middle;spacingLeft=4;spacingRight=4;overflow=hidden;rotatable=0;points=[[0,0.5],[1,0.5]];portConstraint=eastwest;fontSize=12;strokeColor=#4D4D4D;" vertex="1" parent="SO-exuDcZDa1BRKhL2p9-59">
          <mxGeometry y="76" width="160" height="50" as="geometry" />
        </mxCell>
        <mxCell id="SO-exuDcZDa1BRKhL2p9-107" style="edgeStyle=orthogonalEdgeStyle;rounded=1;orthogonalLoop=1;jettySize=auto;html=1;exitX=0;exitY=0.5;exitDx=0;exitDy=0;entryX=1;entryY=0.5;entryDx=0;entryDy=0;fontSize=10;strokeColor=#82b366;fillColor=#d5e8d4;" edge="1" parent="1" source="SO-exuDcZDa1BRKhL2p9-31" target="SO-exuDcZDa1BRKhL2p9-42">
          <mxGeometry relative="1" as="geometry" />
        </mxCell>
        <mxCell id="SO-exuDcZDa1BRKhL2p9-108" style="edgeStyle=orthogonalEdgeStyle;rounded=1;orthogonalLoop=1;jettySize=auto;html=1;exitX=1;exitY=0.5;exitDx=0;exitDy=0;entryX=0;entryY=0.5;entryDx=0;entryDy=0;fontSize=10;strokeColor=#82b366;fillColor=#d5e8d4;" edge="1" parent="1" source="SO-exuDcZDa1BRKhL2p9-31" target="SO-exuDcZDa1BRKhL2p9-58">
          <mxGeometry relative="1" as="geometry">
            <Array as="points">
              <mxPoint x="560" y="264" />
              <mxPoint x="560" y="281" />
            </Array>
          </mxGeometry>
        </mxCell>
        <mxCell id="SO-exuDcZDa1BRKhL2p9-109" style="edgeStyle=orthogonalEdgeStyle;rounded=1;orthogonalLoop=1;jettySize=auto;html=1;exitX=1;exitY=0.5;exitDx=0;exitDy=0;entryX=0;entryY=0.5;entryDx=0;entryDy=0;fontSize=10;strokeColor=#82b366;fillColor=#d5e8d4;" edge="1" parent="1" source="SO-exuDcZDa1BRKhL2p9-31" target="SO-exuDcZDa1BRKhL2p9-61">
          <mxGeometry relative="1" as="geometry">
            <Array as="points">
              <mxPoint x="560" y="264" />
              <mxPoint x="560" y="397" />
            </Array>
          </mxGeometry>
        </mxCell>
        <mxCell id="SO-exuDcZDa1BRKhL2p9-110" style="edgeStyle=orthogonalEdgeStyle;rounded=1;orthogonalLoop=1;jettySize=auto;html=1;exitX=0;exitY=0.5;exitDx=0;exitDy=0;entryX=1;entryY=0.5;entryDx=0;entryDy=0;fontSize=10;strokeColor=#d79b00;fillColor=#ffe6cc;" edge="1" parent="1" source="SO-exuDcZDa1BRKhL2p9-28" target="SO-exuDcZDa1BRKhL2p9-40">
          <mxGeometry relative="1" as="geometry" />
        </mxCell>
        <mxCell id="SO-exuDcZDa1BRKhL2p9-111" style="edgeStyle=orthogonalEdgeStyle;rounded=1;orthogonalLoop=1;jettySize=auto;html=1;exitX=1;exitY=0.5;exitDx=0;exitDy=0;entryX=0;entryY=0.5;entryDx=0;entryDy=0;fontSize=10;strokeColor=#d79b00;fillColor=#ffe6cc;" edge="1" parent="1" source="SO-exuDcZDa1BRKhL2p9-28" target="SO-exuDcZDa1BRKhL2p9-57">
          <mxGeometry relative="1" as="geometry">
            <Array as="points">
              <mxPoint x="520" y="219" />
              <mxPoint x="520" y="251" />
            </Array>
          </mxGeometry>
        </mxCell>
        <mxCell id="SO-exuDcZDa1BRKhL2p9-112" style="edgeStyle=orthogonalEdgeStyle;rounded=1;orthogonalLoop=1;jettySize=auto;html=1;exitX=1;exitY=0.5;exitDx=0;exitDy=0;entryX=0;entryY=0.5;entryDx=0;entryDy=0;fontSize=10;strokeColor=#d79b00;fillColor=#ffe6cc;" edge="1" parent="1" source="SO-exuDcZDa1BRKhL2p9-28" target="SO-exuDcZDa1BRKhL2p9-60">
          <mxGeometry relative="1" as="geometry">
            <Array as="points">
              <mxPoint x="520" y="219" />
              <mxPoint x="520" y="347" />
            </Array>
          </mxGeometry>
        </mxCell>
        <mxCell id="SO-exuDcZDa1BRKhL2p9-117" style="edgeStyle=orthogonalEdgeStyle;rounded=1;orthogonalLoop=1;jettySize=auto;html=1;exitX=0;exitY=0.5;exitDx=0;exitDy=0;entryX=0.25;entryY=0;entryDx=0;entryDy=0;fontSize=10;strokeColor=#6c8ebf;fillColor=#dae8fc;" edge="1" parent="1" source="SO-exuDcZDa1BRKhL2p9-29" target="SO-exuDcZDa1BRKhL2p9-65">
          <mxGeometry relative="1" as="geometry" />
        </mxCell>
        <mxCell id="SO-exuDcZDa1BRKhL2p9-118" style="edgeStyle=orthogonalEdgeStyle;rounded=1;orthogonalLoop=1;jettySize=auto;html=1;exitX=0;exitY=0.5;exitDx=0;exitDy=0;entryX=0.25;entryY=0;entryDx=0;entryDy=0;fontSize=10;strokeColor=#6c8ebf;fillColor=#dae8fc;" edge="1" parent="1" source="SO-exuDcZDa1BRKhL2p9-29" target="SO-exuDcZDa1BRKhL2p9-78">
          <mxGeometry relative="1" as="geometry" />
        </mxCell>
        <mxCell id="SO-exuDcZDa1BRKhL2p9-119" style="edgeStyle=orthogonalEdgeStyle;rounded=1;orthogonalLoop=1;jettySize=auto;html=1;exitX=1;exitY=0.5;exitDx=0;exitDy=0;entryX=0.5;entryY=0;entryDx=0;entryDy=0;fontSize=10;strokeColor=#6c8ebf;fillColor=#dae8fc;" edge="1" parent="1" source="SO-exuDcZDa1BRKhL2p9-29" target="SO-exuDcZDa1BRKhL2p9-56">
          <mxGeometry relative="1" as="geometry">
            <Array as="points">
              <mxPoint x="540" y="309" />
              <mxPoint x="540" y="180" />
              <mxPoint x="663" y="180" />
            </Array>
          </mxGeometry>
        </mxCell>
        <mxCell id="SO-exuDcZDa1BRKhL2p9-120" style="edgeStyle=orthogonalEdgeStyle;rounded=1;orthogonalLoop=1;jettySize=auto;html=1;exitX=1;exitY=0.5;exitDx=0;exitDy=0;entryX=0.25;entryY=0;entryDx=0;entryDy=0;fontSize=10;strokeColor=#6c8ebf;fillColor=#dae8fc;" edge="1" parent="1" source="SO-exuDcZDa1BRKhL2p9-29" target="SO-exuDcZDa1BRKhL2p9-87">
          <mxGeometry relative="1" as="geometry">
            <Array as="points">
              <mxPoint x="540" y="309" />
            </Array>
          </mxGeometry>
        </mxCell>
        <mxCell id="SO-exuDcZDa1BRKhL2p9-122" value="输入参数" style="text;html=1;align=center;verticalAlign=middle;resizable=0;points=[];autosize=1;strokeColor=none;fillColor=none;fontSize=16;fontStyle=1" vertex="1" parent="1">
          <mxGeometry x="340" y="390" width="80" height="20" as="geometry" />
        </mxCell>
      </root>
    </mxGraphModel>
  </diagram>
</mxfile>
